<svg id="SvgjsSvg1303" width="288" height="288" xmlns="http://www.w3.org/2000/svg" version="1.1" xmlns:xlink="http://www.w3.org/1999/xlink" xmlns:svgjs="http://svgjs.com/svgjs"><defs id="SvgjsDefs1304"></defs><g id="SvgjsG1305"><svg xmlns="http://www.w3.org/2000/svg" enable-background="new 0 0 135 135" viewBox="0 0 135 135" width="288" height="288"><rect width="128" height="3.16" x="3.5" y="91.551" fill="#06111d" class="color7a8490 svgShape"></rect><rect width="30.822" height="20.384" x="16.122" y="68.743" fill="#4e85c4" class="colorc4894e svgShape"></rect><rect width="16.985" height="17.45" x="23.041" y="72.329" fill="#578fce" class="colorce9557 svgShape"></rect><rect width="15.658" height="16.119" x="23.698" y="72.993" fill="#c9dff9" class="colorf9f6c9 svgShape"></rect><rect width="18.687" height="1.2" x="22.184" y="71.793" fill="#7fb3ef" class="colorefba7f svgShape"></rect><path fill="#b5ceea" d="M27.1626968 74.9990921v1.4862518h-2.4659138v-1.4862518H27.1626968M27.4487801 74.713356h-3.0380821v2.057724h3.0380821V74.713356L27.4487801 74.713356zM30.8943596 74.9990921v1.4862518h-2.4659119v-1.4862518H30.8943596M31.1804447 74.713356h-3.0380821v2.057724h3.0380821V74.713356L31.1804447 74.713356zM34.6260223 74.9990921v1.4862518h-2.4659119v-1.4862518H34.6260223M34.9121094 74.713356h-3.038084v2.057724h3.038084V74.713356L34.9121094 74.713356zM38.3576889 74.9990921v1.4862518h-2.4659157v-1.4862518H38.3576889M38.6437721 74.713356H35.60569v2.057724h3.0380821V74.713356L38.6437721 74.713356zM27.1626968 78.5390472v1.4862442h-2.4659138v-1.4862442H27.1626968M27.4487801 78.2533112h-3.0380821v2.0577164h3.0380821V78.2533112L27.4487801 78.2533112zM30.8943596 78.5390472v1.4862442h-2.4659119v-1.4862442H30.8943596M31.1804447 78.2533112h-3.0380821v2.0577164h3.0380821V78.2533112L31.1804447 78.2533112zM34.6260223 78.5390472v1.4862442h-2.4659119v-1.4862442H34.6260223M34.9121094 78.2533112h-3.038084v2.0577164h3.038084V78.2533112L34.9121094 78.2533112zM38.3576889 78.5390472v1.4862442h-2.4659157v-1.4862442H38.3576889M38.6437721 78.2533112H35.60569v2.0577164h3.0380821V78.2533112L38.6437721 78.2533112zM27.1626968 82.0790024v1.4862442h-2.4659138v-1.4862442H27.1626968M27.4487801 81.7932663h-3.0380821v2.0577164h3.0380821V81.7932663L27.4487801 81.7932663zM30.8943596 82.0790024v1.4862442h-2.4659119v-1.4862442H30.8943596M31.1804447 81.7932663h-3.0380821v2.0577164h3.0380821V81.7932663L31.1804447 81.7932663zM34.6260223 82.0790024v1.4862442h-2.4659119v-1.4862442H34.6260223M34.9121094 81.7932663h-3.038084v2.0577164h3.038084V81.7932663L34.9121094 81.7932663zM38.3576889 82.0790024v1.4862442h-2.4659157v-1.4862442H38.3576889M38.6437721 81.7932663H35.60569v2.0577164h3.0380821V81.7932663L38.6437721 81.7932663zM27.1626968 85.6189499v1.4862442h-2.4659138v-1.4862442H27.1626968M27.4487801 85.3332138h-3.0380821v2.0577164h3.0380821V85.3332138L27.4487801 85.3332138zM30.8943596 85.6189499v1.4862442h-2.4659119v-1.4862442H30.8943596M31.1804447 85.3332138h-3.0380821v2.0577164h3.0380821V85.3332138L31.1804447 85.3332138zM34.6260223 85.6189499v1.4862442h-2.4659119v-1.4862442H34.6260223M34.9121094 85.3332138h-3.038084v2.0577164h3.038084V85.3332138L34.9121094 85.3332138zM38.3576889 85.6189499v1.4862442h-2.4659157v-1.4862442H38.3576889M38.6437721 85.3332138H35.60569v2.0577164h3.0380821V85.3332138L38.6437721 85.3332138z" class="coloreae4b5 svgShape"></path><rect width="15.662" height=".372" x="23.696" y="87.946" fill="#b5ceea" class="coloreae4b5 svgShape"></rect><rect width="15.662" height=".372" x="23.696" y="84.406" fill="#b5ceea" class="coloreae4b5 svgShape"></rect><rect width="15.662" height=".372" x="23.696" y="80.866" fill="#b5ceea" class="coloreae4b5 svgShape"></rect><rect width="15.662" height=".372" x="23.696" y="77.326" fill="#b5ceea" class="coloreae4b5 svgShape"></rect><rect width="15.662" height=".372" x="23.696" y="73.787" fill="#b5ceea" class="coloreae4b5 svgShape"></rect><rect width="34.604" height="2.429" x="13.716" y="89.122" fill="#7fb3ef" class="colorefba7f svgShape"></rect><rect width="30.821" height="1.045" x="16.117" y="68.748" opacity=".08" fill="#000000" class="color000 svgShape"></rect><rect width="1.466" height="20.374" x="45.471" y="68.748" opacity=".08" fill="#000000" class="color000 svgShape"></rect><rect width="38.344" height="4.559" x="14.625" y="64.19" fill="#578fce" class="colorce9557 svgShape"></rect><polygon fill="#275d9b" points="53.826 52.803 53.826 67.048 12.688 67.048 21.263 52.803" class="color9b3f27 svgShape"></polygon><rect width="23.217" height="22.064" x="46.936" y="67.057" fill="#578fce" class="colorce9557 svgShape"></rect><rect width="23.22" height="22.07" x="94.8" y="67.056" fill="#578fce" class="colorce9557 svgShape"></rect><rect width="1.867" height="22.064" x="94.803" y="67.057" opacity=".08" fill="#000000" class="color000 svgShape"></rect><rect width="1.867" height="22.064" x="68.283" y="67.057" opacity=".08" fill="#000000" class="color000 svgShape"></rect><rect width="18.02" height="22.07" x="73.47" y="67.056" fill="#3d76b7" class="colorb7773d svgShape"></rect><rect width="71.087" height="1.701" x="46.938" y="67.048" opacity=".08" fill="#000000" class="color000 svgShape"></rect><polygon fill="#336bab" points="122.312 67.048 113.737 45.972 51.225 45.972 42.651 67.048" class="colorab5033 svgShape"></polygon><rect width="10.231" height="7.831" x="103.267" y="73.964" fill="#c9dff9" class="colorf9f6c9 svgShape"></rect><rect width="8.889" height="6.071" x="103.937" y="74.753" fill="#3f4144" class="color44433f svgShape"></rect><rect width="1.308" height="6.071" x="107.728" y="74.753" fill="#c9dff9" class="colorf9f6c9 svgShape"></rect><rect width="11.46" height="1.488" x="102.652" y="72.476" fill="#7fb3ef" class="colorefba7f svgShape"></rect><rect width="10.231" height="7.831" x="56.439" y="73.964" fill="#c9dff9" class="colorf9f6c9 svgShape"></rect><rect width="8.889" height="6.071" x="57.11" y="74.753" fill="#3f4144" class="color44433f svgShape"></rect><rect width="1.308" height="6.67" x="60.901" y="74.454" fill="#c9dff9" class="colorf9f6c9 svgShape"></rect><rect width="11.46" height="1.488" x="55.825" y="72.476" fill="#7fb3ef" class="colorefba7f svgShape"></rect><g fill="#000000" class="color000 svgShape"><rect width="14.988" height="15.424" x="74.984" y="73.688" fill="#b5ceea" class="coloreae4b5 svgShape"></rect><rect width="6.689" height="14.806" x="82.661" y="74.311" fill="#c9dff9" class="colorf9f6c9 svgShape"></rect><rect width="6.689" height="14.806" x="75.606" y="74.311" fill="#c9dff9" class="colorf9f6c9 svgShape"></rect><path fill="#3f4144" d="M80.7385559,76.5507431v7.0259094h-3.5764923v-7.0259094c0,0,0.6731644-0.0656662,0.8941269-0.1357422
					c0.2265091-0.0718384,0.6564941-0.4323502,0.8941193-0.4323502s0.6676178,0.3605118,0.8941269,0.4323502
					C80.0653992,76.4850769,80.7385559,76.5507431,80.7385559,76.5507431z" class="color44433f svgShape"></path><path fill="#b5ceea" d="M80.879921,87.8420715h-3.860054v-2.8837357h3.860054V87.8420715z M77.3045502,87.5573883h3.2906799
						v-2.3143616h-3.2906799V87.5573883z" class="coloreae4b5 svgShape"></path><path fill="#3f4144" d="M87.7939377,76.5507431v7.0259094h-3.5764923v-7.0259094c0,0,0.6731644-0.0656662,0.8941269-0.1357422
					c0.2265091-0.0718384,0.6564941-0.4323502,0.8941193-0.4323502s0.6676178,0.3605118,0.8941269,0.4323502
					C87.1207809,76.4850769,87.7939377,76.5507431,87.7939377,76.5507431z" class="color44433f svgShape"></path><path fill="#b5ceea" d="M87.9357452,87.8420715h-3.8600464v-2.8837357h3.8600464V87.8420715z M84.3603821,87.5573883h3.2906799
						v-2.3143616h-3.2906799V87.5573883z" class="coloreae4b5 svgShape"></path><rect width="3.315" height="18.663" x="70.153" y="70.449" fill="#6199da" class="colordaa561 svgShape"></rect><rect width="3.315" height="18.663" x="91.488" y="70.449" fill="#6199da" class="colordaa561 svgShape"></rect><rect width="3.315" height="1.944" x="70.153" y="70.449" fill="#578fce" class="colorce9557 svgShape"></rect><rect width="3.315" height="1.944" x="91.488" y="70.449" fill="#578fce" class="colorce9557 svgShape"></rect><rect width="26.523" height="3.401" x="69.217" y="67.048" fill="#7fb3ef" class="colorefba7f svgShape"></rect><polygon fill="#578fce" points="94.5 54.656 94.5 67.046 70.46 67.046 70.46 54.656 82.48 42.336" class="colorce9557 svgShape"></polygon><rect width="12.347" height="11.146" x="76.304" y="55.901" fill="#c9dff9" class="colorf9f6c9 svgShape"></rect><rect width="10.634" height="9.434" x="77.16" y="56.758" fill="#3f4144" class="color44433f svgShape"></rect><rect width="1.239" height="9.434" x="81.857" y="56.758" fill="#c9dff9" class="colorf9f6c9 svgShape"></rect><polygon points="94.5 54.656 94.5 67.046 79.16 67.046 70.46 58.346 70.46 54.656 82.48 42.336" opacity=".08" fill="#000000" class="color000 svgShape"></polygon><polygon fill="#275d9b" points="69.671 57.508 67.628 55.513 82.479 40.289 97.33 55.513 95.282 57.508 82.479 44.38" class="color9b3f27 svgShape"></polygon></g><rect width="74.809" height="2.429" x="45.074" y="89.122" fill="#7fb3ef" class="colorefba7f svgShape"></rect><polygon points="46.944 68.743 46.944 89.128 34.767 89.128 16.122 70.483 16.122 68.743" opacity=".08" fill="#000000" class="color000 svgShape"></polygon><g fill="#000000" class="color000 svgShape"><rect width="1.658" height="7.985" x="6.6" y="83.566" fill="#064287" class="color874306 svgShape"></rect><path fill="#104a8c" d="M3.5,86.5282669h7.8576975L7.8965039,68.643158c-0.5221925,0-0.4082489,0-0.9305577,0L3.5,86.5282669z" class="color5f8c10 svgShape"></path><path fill="#0a3f7c" d="M6.6134543 74.4753571c0 .1477203.1199441.2676697.2676544.2676697.1488357 0 .2687802-.1199493.2687802-.2676697 0-.1477127-.1199446-.267662-.2687802-.267662C6.7333984 74.207695 6.6134543 74.3276443 6.6134543 74.4753571zM5.4540668 80.116951c0 .1477127.1199441.267662.2676544.267662.1488357 0 .2687802-.1199493.2687802-.267662 0-.1477203-.1199446-.267662-.2687802-.267662C5.5740108 79.8492889 5.4540668 79.9692307 5.4540668 80.116951zM5.9905014 82.2777328c0 .1477203.1199441.2676697.2676544.2676697.1488357 0 .2687802-.1199493.2687802-.2676697 0-.1477127-.1199446-.267662-.2687802-.267662C6.1104455 82.0100708 5.9905014 82.1300201 5.9905014 82.2777328zM4.7505159 85.2248383c0 .2470474.2006035.4476624.4476452.4476624.2489233 0 .4495268-.2006149.4495268-.4476624 0-.2470551-.2006035-.4476624-.4495268-.4476624C4.9511194 84.7771759 4.7505159 84.9777832 4.7505159 85.2248383zM5.7222838 76.4495544c0 .1911011.1551747.346283.346271.346283.1925526 0 .3477273-.1551819.3477273-.346283 0-.1911087-.1551747-.346283-.3477273-.346283C5.8774586 76.1032715 5.7222838 76.2584457 5.7222838 76.4495544zM6.8028898 79.1581879c0 .1911011.1551747.346283.346271.346283.1925521 0 .3477273-.1551819.3477273-.346283 0-.1911087-.1551752-.346283-.3477273-.346283C6.9580646 78.8119049 6.8028898 78.9670792 6.8028898 79.1581879zM8.0887384 73.3233871c0 .1477203-.1199441.2676697-.2676544.2676697-.1488357 0-.2687798-.1199493-.2687798-.2676697 0-.1477127.1199441-.2676544.2687798-.2676544C7.9687943 73.0557327 8.0887384 73.1756744 8.0887384 73.3233871zM7.6970663 71.4159546c0 .1477203-.1199446.2676697-.2676549.2676697-.1488357 0-.2687798-.1199493-.2687798-.2676697s.1199441-.267662.2687798-.267662C7.5771217 71.1482925 7.6970663 71.2682343 7.6970663 71.4159546zM9.3587809 79.3475113c0 .1477127-.1199446.267662-.2676554.267662-.1488352 0-.2687798-.1199493-.2687798-.267662 0-.1477203.1199446-.267662.2687798-.267662C9.2388363 79.0798492 9.3587809 79.199791 9.3587809 79.3475113zM8.3569565 82.5454025c0 .1477127-.1199446.267662-.2676554.267662-.1488352 0-.2687798-.1199493-.2687798-.267662 0-.1477203.1199446-.267662.2687798-.267662C8.2370119 82.2777405 8.3569565 82.3976822 8.3569565 82.5454025zM10.0755835 83.603302c0 .2470474-.2006035.4476624-.4476442.4476624-.2489243 0-.4495277-.2006149-.4495277-.4476624 0-.2470551.2006035-.4476624.4495277-.4476624C9.87498 83.1556396 10.0755835 83.3562469 10.0755835 83.603302zM9.0905628 76.2154388c0 .1911087-.1551743.3462906-.3462706.3462906-.1925526 0-.3477268-.1551819-.3477268-.3462906 0-.1911011.1551743-.3462753.3477268-.3462753C8.9353886 75.8691635 9.0905628 76.0243378 9.0905628 76.2154388zM7.9311752 77.2394257c0 .1911011-.1551747.346283-.346271.346283-.1925521 0-.3477268-.1551819-.3477268-.346283 0-.1911087.1551747-.346283.3477268-.346283C7.7760005 76.8931427 7.9311752 77.048317 7.9311752 77.2394257z" class="color597c0a svgShape"></path><rect width="1.434" height="6.905" x="12.987" y="84.624" fill="#064287" class="color874306 svgShape"></rect><path fill="#185499" d="M8.0887384,81.1694946c0,3.1046295,2.5135975,5.618187,5.618228,5.618187
					c3.098402,0,5.6119995-2.5135574,5.6119995-5.618187c0-3.0984421-2.5135975-5.6119995-5.6119995-5.6119995
					C10.6023359,75.5574951,8.0887384,78.0710526,8.0887384,81.1694946z" class="color669918 svgShape"></path><path fill="#0a3f7c" d="M11.6482239 85.2942352c0 .232933.1956301.4192963.41924.4192963.2329369 0 .4286804-.1863632.4286804-.4192963s-.1957436-.4192963-.4286804-.4192963C11.843854 84.874939 11.6482239 85.0613022 11.6482239 85.2942352zM10.8684788 82.1367416c0 .2329407.1956301.4192963.41924.4192963.2329359 0 .4286795-.1863556.4286795-.4192963 0-.232933-.1957436-.4192963-.4286795-.4192963C11.0641088 81.7174454 10.8684788 81.9038086 10.8684788 82.1367416zM10.2661505 84.0586853c0 .139946.1175299.2519073.2518682.2519073.1399412 0 .2575388-.1119614.2575388-.2519073 0-.1399384-.1175976-.2518997-.2575388-.2518997C10.3836803 83.8067856 10.2661505 83.9187469 10.2661505 84.0586853zM9.4416676 82.7773361c0 .1399384.1175299.2518997.2518682.2518997.1399412 0 .2575388-.1119614.2575388-.2518997 0-.139946-.1175976-.2518997-.2575388-.2518997C9.5591974 82.5254364 9.4416676 82.6373901 9.4416676 82.7773361zM12.5792322 80.9096527c0 .139946.1175289.2519073.2518673.2519073.1399422 0 .2575397-.1119614.2575397-.2519073 0-.1399384-.1175976-.2518997-.2575397-.2518997C12.6967611 80.657753 12.5792322 80.7697144 12.5792322 80.9096527zM10.6137753 80.2783966c0 .139946.1175289.2518997.2518673.2518997.1399422 0 .2575397-.1119537.2575397-.2518997 0-.1399384-.1175976-.2518997-.2575397-.2518997C10.7313042 80.0264969 10.6137753 80.1384583 10.6137753 80.2783966zM9.2308121 80.8335266c0 .139946.1175299.2519073.2518682.2519073.1399412 0 .2575388-.1119614.2575388-.2519073 0-.1399384-.1175976-.2518997-.2575388-.2518997C9.3483419 80.5816269 9.2308121 80.6935883 9.2308121 80.8335266zM9.8541193 78.6817932c0 .139946.1175299.2519073.2518682.2519073.1399412 0 .2575388-.1119614.2575388-.2519073 0-.1399384-.1175976-.2518997-.2575388-.2518997C9.9716492 78.4298935 9.8541193 78.5418549 9.8541193 78.6817932zM12.1342134 79.3360977c0 .139946.1175299.2518997.2518682.2518997.1399412 0 .2575388-.1119537.2575388-.2518997 0-.1399384-.1175976-.2518997-.2575388-.2518997C12.2517433 79.084198 12.1342134 79.1961594 12.1342134 79.3360977zM12.0698252 76.9823532c0 .1399384.1175299.2518997.2518682.2518997.1399412 0 .2575388-.1119614.2575388-.2518997 0-.139946-.1175976-.2519073-.2575388-.2519073C12.187355 76.7304459 12.0698252 76.8424072 12.0698252 76.9823532zM11.037735 78.1779938c0 .1399384.1175299.2518997.2518682.2518997.1399412 0 .2575388-.1119614.2575388-.2518997 0-.139946-.1175976-.2519073-.2575388-.2519073C11.1552649 77.9260864 11.037735 78.0380478 11.037735 78.1779938zM13.6566544 79.5879974c0 .139946.1175289.2519073.2518682.2519073.1399412 0 .2575388-.1119614.2575388-.2519073 0-.1399384-.1175976-.2518997-.2575388-.2518997C13.7741833 79.3360977 13.6566544 79.4480591 13.6566544 79.5879974zM12.7322063 83.2210617c0 .1399384.1175289.2518997.2518682.2518997.1399412 0 .2575388-.1119614.2575388-.2518997 0-.139946-.1175976-.2518997-.2575388-.2518997C12.8497353 82.969162 12.7322063 83.0811157 12.7322063 83.2210617zM16.1744919 85.2942352c0 .232933-.1956301.4192963-.41924.4192963-.2329369 0-.4286804-.1863632-.4286804-.4192963s.1957436-.4192963.4286804-.4192963C15.9788618 84.874939 16.1744919 85.0613022 16.1744919 85.2942352zM16.954237 82.1367416c0 .2329407-.1956291.4192963-.419239.4192963-.2329369 0-.4286804-.1863556-.4286804-.4192963 0-.232933.1957436-.4192963.4286804-.4192963C16.7586079 81.7174454 16.954237 81.9038086 16.954237 82.1367416zM17.5565643 84.0586853c0 .139946-.1175289.2519073-.2518673.2519073-.1399422 0-.2575378-.1119614-.2575378-.2519073 0-.1399384.1175957-.2518997.2575378-.2518997C17.4390354 83.8067856 17.5565643 83.9187469 17.5565643 84.0586853zM18.3810482 82.7773361c0 .1399384-.1175289.2518997-.2518673.2518997-.1399422 0-.2575397-.1119614-.2575397-.2518997 0-.139946.1175976-.2518997.2575397-.2518997C18.2635193 82.5254364 18.3810482 82.6373901 18.3810482 82.7773361zM15.2434835 80.9096527c0 .139946-.1175289.2519073-.2518673.2519073-.1399422 0-.2575397-.1119614-.2575397-.2519073 0-.1399384.1175976-.2518997.2575397-.2518997C15.1259546 80.657753 15.2434835 80.7697144 15.2434835 80.9096527zM17.2089405 80.2783966c0 .139946-.1175289.2518997-.2518673.2518997-.1399422 0-.2575397-.1119537-.2575397-.2518997 0-.1399384.1175976-.2518997.2575397-.2518997C17.0914116 80.0264969 17.2089405 80.1384583 17.2089405 80.2783966zM18.5919037 80.8335266c0 .139946-.1175289.2519073-.2518673.2519073-.1399422 0-.2575397-.1119614-.2575397-.2519073 0-.1399384.1175976-.2518997.2575397-.2518997C18.4743748 80.5816269 18.5919037 80.6935883 18.5919037 80.8335266zM17.9685955 78.6817932c0 .139946-.1175289.2519073-.2518673.2519073-.1399422 0-.2575378-.1119614-.2575378-.2519073 0-.1399384.1175957-.2518997.2575378-.2518997C17.8510666 78.4298935 17.9685955 78.5418549 17.9685955 78.6817932zM15.4337988 78.7833252c0 .1399384-.1175289.2518997-.2518673.2518997-.1399422 0-.2575397-.1119614-.2575397-.2518997 0-.139946.1175976-.2519073.2575397-.2519073C15.3162699 78.5314178 15.4337988 78.6433792 15.4337988 78.7833252zM15.7528906 76.9823532c0 .1399384-.1175289.2518997-.2518682.2518997-.1399412 0-.2575388-.1119614-.2575388-.2518997 0-.139946.1175976-.2519073.2575388-.2519073C15.6353617 76.7304459 15.7528906 76.8424072 15.7528906 76.9823532zM16.7849808 78.1779938c0 .1399384-.1175289.2518997-.2518673.2518997-.1399422 0-.2575397-.1119614-.2575397-.2518997 0-.139946.1175976-.2519073.2575397-.2519073C16.6674519 77.9260864 16.7849808 78.0380478 16.7849808 78.1779938zM14.1660614 77.4110641c0 .1399384-.1175289.2518997-.2518673.2518997-.1399422 0-.2575397-.1119614-.2575397-.2518997 0-.139946.1175976-.2519073.2575397-.2519073C14.0485325 77.1591568 14.1660614 77.2711182 14.1660614 77.4110641zM15.0905094 83.2210617c0 .1399384-.1175289.2518997-.2518673.2518997-.1399422 0-.2575397-.1119614-.2575397-.2518997 0-.139946.1175976-.2518997.2575397-.2518997C14.9729805 82.969162 15.0905094 83.0811157 15.0905094 83.2210617zM14.2743502 85.0423355c0 .1399384-.1175289.2518997-.2518673.2518997-.1399422 0-.2575397-.1119614-.2575397-.2518997 0-.139946.1175976-.2518997.2575397-.2518997C14.1568213 84.7904358 14.2743502 84.9023895 14.2743502 85.0423355z" class="color597c0a svgShape"></path></g><g fill="#000000" class="color000 svgShape"><rect width="1.658" height="7.985" x="118.781" y="83.566" fill="#064287" class="color874306 svgShape"></rect><path fill="#104a8c" d="M115.6810379,86.5282669h7.8576965l-3.4611969-17.8851089c-0.5221939,0-0.4082489,0-0.9305573,0
						L115.6810379,86.5282669z" class="color5f8c10 svgShape"></path><path fill="#0a3f7c" d="M118.794487 74.4753571c0 .1477203.1199493.2676697.2676544.2676697.1488342 0 .2687836-.1199493.2687836-.2676697 0-.1477127-.1199493-.267662-.2687836-.267662C118.9144363 74.207695 118.794487 74.3276443 118.794487 74.4753571zM117.6351013 80.116951c0 .1477127.1199417.267662.2676544.267662.1488342 0 .2687836-.1199493.2687836-.267662 0-.1477203-.1199493-.267662-.2687836-.267662C117.755043 79.8492889 117.6351013 79.9692307 117.6351013 80.116951zM118.1715393 82.2777328c0 .1477203.1199417.2676697.2676544.2676697.1488342 0 .2687759-.1199493.2687759-.2676697 0-.1477127-.1199417-.267662-.2687759-.267662C118.291481 82.0100708 118.1715393 82.1300201 118.1715393 82.2777328zM116.9315491 85.2248383c0 .2470474.2006073.4476624.4476471.4476624.2489243 0 .4495239-.2006149.4495239-.4476624 0-.2470551-.2005997-.4476624-.4495239-.4476624C117.1321564 84.7771759 116.9315491 84.9777832 116.9315491 85.2248383zM117.9033203 76.4495544c0 .1911011.1551743.346283.3462677.346283.1925507 0 .3477249-.1551819.3477249-.346283 0-.1911087-.1551743-.346283-.3477249-.346283C118.0584946 76.1032715 117.9033203 76.2584457 117.9033203 76.4495544zM118.9839249 79.1581879c0 .1911011.1551743.346283.3462677.346283.1925583 0 .3477325-.1551819.3477325-.346283 0-.1911087-.1551743-.346283-.3477325-.346283C119.1390991 78.8119049 118.9839249 78.9670792 118.9839249 79.1581879zM120.2697754 73.3233871c0 .1477203-.1199493.2676697-.2676544.2676697-.1488419 0-.2687836-.1199493-.2687836-.2676697 0-.1477127.1199417-.2676544.2687836-.2676544C120.149826 73.0557327 120.2697754 73.1756744 120.2697754 73.3233871zM119.8780975 71.4159546c0 .1477203-.1199417.2676697-.2676544.2676697-.1488342 0-.2687759-.1199493-.2687759-.2676697s.1199417-.267662.2687759-.267662C119.7581558 71.1482925 119.8780975 71.2682343 119.8780975 71.4159546zM121.5398178 79.3475113c0 .1477127-.1199493.267662-.2676544.267662-.1488419 0-.2687836-.1199493-.2687836-.267662 0-.1477203.1199417-.267662.2687836-.267662C121.4198685 79.0798492 121.5398178 79.199791 121.5398178 79.3475113zM120.5379868 82.5454025c0 .1477127-.1199417.267662-.2676544.267662-.1488342 0-.2687759-.1199493-.2687759-.267662 0-.1477203.1199417-.267662.2687759-.267662C120.418045 82.2777405 120.5379868 82.3976822 120.5379868 82.5454025zM122.2566147 83.603302c0 .2470474-.2005997.4476624-.4476395.4476624-.2489243 0-.4495316-.2006149-.4495316-.4476624 0-.2470551.2006073-.4476624.4495316-.4476624C122.056015 83.1556396 122.2566147 83.3562469 122.2566147 83.603302zM121.2715988 76.2154388c0 .1911087-.1551743.3462906-.3462753.3462906-.1925507 0-.3477249-.1551819-.3477249-.3462906 0-.1911011.1551743-.3462753.3477249-.3462753C121.1164246 75.8691635 121.2715988 76.0243378 121.2715988 76.2154388zM120.1122131 77.2394257c0 .1911011-.1551819.346283-.3462753.346283-.1925507 0-.3477249-.1551819-.3477249-.346283 0-.1911087.1551743-.346283.3477249-.346283C119.9570313 76.8931427 120.1122131 77.048317 120.1122131 77.2394257z" class="color597c0a svgShape"></path><rect width="1.434" height="6.905" x="125.168" y="84.624" fill="#064287" class="color874306 svgShape"></rect><path fill="#185499" d="M120.2697754,81.1694946c0,3.1046295,2.5135956,5.618187,5.6182251,5.618187
					c3.0984039,0,5.6119995-2.5135574,5.6119995-5.618187c0-3.0984421-2.5135956-5.6119995-5.6119995-5.6119995
					C122.783371,75.5574951,120.2697754,78.0710526,120.2697754,81.1694946z" class="color669918 svgShape"></path><path fill="#0a3f7c" d="M123.8292618 85.2942352c0 .232933.1956253.4192963.4192352.4192963.2329407 0 .4286804-.1863632.4286804-.4192963s-.1957397-.4192963-.4286804-.4192963C124.0248871 84.874939 123.8292618 85.0613022 123.8292618 85.2942352zM123.0495148 82.1367416c0 .2329407.1956253.4192963.4192352.4192963.2329407 0 .4286804-.1863556.4286804-.4192963 0-.232933-.1957397-.4192963-.4286804-.4192963C123.2451401 81.7174454 123.0495148 81.9038086 123.0495148 82.1367416zM122.4471817 84.0586853c0 .139946.1175308.2519073.2518692.2519073.139946 0 .2575378-.1119614.2575378-.2519073 0-.1399384-.1175919-.2518997-.2575378-.2518997C122.5647125 83.8067856 122.4471817 83.9187469 122.4471817 84.0586853zM121.6227036 82.7773361c0 .1399384.1175308.2518997.2518692.2518997.1399384 0 .2575378-.1119614.2575378-.2518997 0-.139946-.1175995-.2518997-.2575378-.2518997C121.7402344 82.5254364 121.6227036 82.6373901 121.6227036 82.7773361zM124.7602692 80.9096527c0 .139946.1175232.2519073.2518616.2519073.139946 0 .2575455-.1119614.2575455-.2519073 0-.1399384-.1175995-.2518997-.2575455-.2518997C124.8777924 80.657753 124.7602692 80.7697144 124.7602692 80.9096527zM122.7948074 80.2783966c0 .139946.1175308.2518997.2518692.2518997.139946 0 .2575378-.1119537.2575378-.2518997 0-.1399384-.1175919-.2518997-.2575378-.2518997C122.9123383 80.0264969 122.7948074 80.1384583 122.7948074 80.2783966zM121.41185 80.8335266c0 .139946.1175232.2519073.2518616.2519073.139946 0 .2575455-.1119614.2575455-.2519073 0-.1399384-.1175995-.2518997-.2575455-.2518997C121.5293732 80.5816269 121.41185 80.6935883 121.41185 80.8335266zM122.0351563 78.6817932c0 .139946.1175232.2519073.2518692.2519073.1399384 0 .2575378-.1119614.2575378-.2519073 0-.1399384-.1175995-.2518997-.2575378-.2518997C122.1526794 78.4298935 122.0351563 78.5418549 122.0351563 78.6817932zM124.3152466 79.3360977c0 .139946.1175308.2518997.2518692.2518997.1399384 0 .2575378-.1119537.2575378-.2518997 0-.1399384-.1175995-.2518997-.2575378-.2518997C124.4327774 79.084198 124.3152466 79.1961594 124.3152466 79.3360977zM124.2508621 76.9823532c0 .1399384.1175232.2518997.2518692.2518997.1399384 0 .2575378-.1119614.2575378-.2518997 0-.139946-.1175995-.2519073-.2575378-.2519073C124.3683853 76.7304459 124.2508621 76.8424072 124.2508621 76.9823532zM123.2187729 78.1779938c0 .1399384.1175232.2518997.2518616.2518997.139946 0 .2575455-.1119614.2575455-.2518997 0-.139946-.1175995-.2519073-.2575455-.2519073C123.3362961 77.9260864 123.2187729 78.0380478 123.2187729 78.1779938zM125.8376923 79.5879974c0 .139946.1175232.2519073.2518616.2519073.139946 0 .2575455-.1119614.2575455-.2519073 0-.1399384-.1175995-.2518997-.2575455-.2518997C125.9552155 79.3360977 125.8376923 79.4480591 125.8376923 79.5879974zM124.9132385 83.2210617c0 .1399384.1175308.2518997.2518692.2518997.139946 0 .2575378-.1119614.2575378-.2518997 0-.139946-.1175919-.2518997-.2575378-.2518997C125.0307693 82.969162 124.9132385 83.0811157 124.9132385 83.2210617zM128.3555298 85.2942352c0 .232933-.1956329.4192963-.4192429.4192963-.2329407 0-.4286804-.1863632-.4286804-.4192963s.1957397-.4192963.4286804-.4192963C128.1598969 84.874939 128.3555298 85.0613022 128.3555298 85.2942352zM129.1352692 82.1367416c0 .2329407-.1956329.4192963-.4192352.4192963-.2329407 0-.4286804-.1863556-.4286804-.4192963 0-.232933.1957397-.4192963.4286804-.4192963C128.9396362 81.7174454 129.1352692 81.9038086 129.1352692 82.1367416zM129.7375946 84.0586853c0 .139946-.1175232.2519073-.2518616.2519073-.1399384 0-.2575378-.1119614-.2575378-.2519073 0-.1399384.1175995-.2518997.2575378-.2518997C129.6200714 83.8067856 129.7375946 83.9187469 129.7375946 84.0586853zM130.562088 82.7773361c0 .1399384-.1175385.2518997-.2518768.2518997-.1399384 0-.2575378-.1119614-.2575378-.2518997 0-.139946.1175995-.2518997.2575378-.2518997C130.4445496 82.5254364 130.562088 82.6373901 130.562088 82.7773361zM127.4245148 80.9096527c0 .139946-.1175232.2519073-.2518616.2519073-.139946 0-.2575455-.1119614-.2575455-.2519073 0-.1399384.1175995-.2518997.2575455-.2518997C127.3069916 80.657753 127.4245148 80.7697144 127.4245148 80.9096527zM129.3899689 80.2783966c0 .139946-.1175232.2518997-.2518616.2518997-.1399384 0-.2575378-.1119537-.2575378-.2518997 0-.1399384.1175995-.2518997.2575378-.2518997C129.2724457 80.0264969 129.3899689 80.1384583 129.3899689 80.2783966zM130.772934 80.8335266c0 .139946-.1175232.2519073-.2518616.2519073-.1399384 0-.2575378-.1119614-.2575378-.2519073 0-.1399384.1175995-.2518997.2575378-.2518997C130.6554108 80.5816269 130.772934 80.6935883 130.772934 80.8335266zM130.1496277 78.6817932c0 .139946-.1175232.2519073-.2518616.2519073-.1399384 0-.2575378-.1119614-.2575378-.2519073 0-.1399384.1175995-.2518997.2575378-.2518997C130.0321045 78.4298935 130.1496277 78.5418549 130.1496277 78.6817932zM127.61483 78.7833252c0 .1399384-.1175232.2518997-.2518616.2518997-.139946 0-.2575455-.1119614-.2575455-.2518997 0-.139946.1175995-.2519073.2575455-.2519073C127.4973068 78.5314178 127.61483 78.6433792 127.61483 78.7833252zM127.9339218 76.9823532c0 .1399384-.1175232.2518997-.2518616.2518997-.139946 0-.2575455-.1119614-.2575455-.2518997 0-.139946.1175995-.2519073.2575455-.2519073C127.8163986 76.7304459 127.9339218 76.8424072 127.9339218 76.9823532zM128.9660187 78.1779938c0 .1399384-.1175385.2518997-.2518768.2518997-.1399384 0-.2575378-.1119614-.2575378-.2518997 0-.139946.1175995-.2519073.2575378-.2519073C128.8484802 77.9260864 128.9660187 78.0380478 128.9660187 78.1779938zM126.3470993 77.4110641c0 .1399384-.1175308.2518997-.2518692.2518997-.139946 0-.2575378-.1119614-.2575378-.2518997 0-.139946.1175919-.2519073.2575378-.2519073C126.2295685 77.1591568 126.3470993 77.2711182 126.3470993 77.4110641zM127.2715454 83.2210617c0 .1399384-.1175308.2518997-.2518692.2518997-.1399384 0-.2575378-.1119614-.2575378-.2518997 0-.139946.1175995-.2518997.2575378-.2518997C127.1540146 82.969162 127.2715454 83.0811157 127.2715454 83.2210617zM126.4553833 85.0423355c0 .1399384-.1175308.2518997-.2518692.2518997-.1399384 0-.2575378-.1119614-.2575378-.2518997 0-.139946.1175995-.2518997.2575378-.2518997C126.3378525 84.7904358 126.4553833 84.9023895 126.4553833 85.0423355z" class="color597c0a svgShape"></path></g><polygon points="91.49 70.446 91.49 89.126 87.9 89.126 70.15 71.376 70.15 70.446" opacity=".08" fill="#000000" class="color000 svgShape"></polygon></svg></g></svg>