<svg id="SvgjsSvg1049" width="288" height="288" xmlns="http://www.w3.org/2000/svg" version="1.1" xmlns:xlink="http://www.w3.org/1999/xlink" xmlns:svgjs="http://svgjs.com/svgjs"><defs id="SvgjsDefs1050"></defs><g id="SvgjsG1051" transform="matrix(1,0,0,1,0,0)"><svg xmlns="http://www.w3.org/2000/svg" xmlns:svgjs="http://svgjs.com/svgjs" xmlns:xlink="http://www.w3.org/1999/xlink" viewBox="0 0 288 288" width="288" height="288"><svg xmlns="http://www.w3.org/2000/svg" viewBox="0 0 47.5 47.5" width="288" height="288"><defs><clipPath id="a"><path d="M0 38h38V0H0v38Z" class="color000 svgShape" fill="#000000"></path></clipPath></defs><g class="color000 svgShape" clip-path="url(#a)" transform="matrix(1.25 0 0 -1.25 0 47.5)" fill="#000000"><path fill="#4d8eff" d="M6.942 4c-.138 4.657-.507 8-.942 8-.435 0-.804-3.343-.942-8h1.884Z" class="colorffcc4d svgShape color4d8eff"></path><path fill="#88a3d3" d="M17 16.577C17 11.532 14.762 10 12 10c-2.761 0-5 1.532-5 6.577C7 21.621 11 29 12 29s5-7.379 5-12.423" class="colora6d388 svgShape color88a3d3"></path><path fill="#5577b2" d="M11 17.269C11 11.695 8.762 10 6 10c-2.761 0-5 1.695-5 7.269C1 22.846 5 31 6 31s5-8.154 5-13.731" class="color77b255 svgShape color5577b2"></path><path fill="#b6d1ff" d="m9 21 13 13 13-13V5H9v16Z" class="colorffe8b6 svgShape colorb6d1ff"></path><path fill="#ffffff" d="M23 5h-1v16h1V5z" class="colorfff svgShape"></path><path fill="#4d8eff" d="M10 5H9v16h1V5zm24 0h1v16h-1V5z" class="colorffcc4d svgShape color4d8eff"></path><path fill="#666f7f" d="M35 20a.997.997 0 0 0-.707.293L22 32.586 9.707 20.293a.999.999 0 1 0-1.414 1.414l13 13a.999.999 0 0 0 1.414 0l13-13A.999.999 0 0 0 35 20" class="color66757f svgShape color666f7f"></path><path fill="#666f7f" d="M22 20a.999.999 0 0 0-.707 1.707l6.5 6.5a.999.999 0 1 0 1.414-1.414l-6.5-6.5A.997.997 0 0 0 22 20" class="color66757f svgShape color666f7f"></path><path fill="#4f79c1" d="M18 5h-4v6h4V5z" class="colorc1694f svgShape color4f79c1"></path><path fill="#558dee" d="M30 7h-3v4h3V7z" class="color55acee svgShape color558dee"></path><path fill="#558dee" d="M26 7h2v4h-2V7zm5 0h-2v4h2V7zm-13 9h-4v4h4v-4zm13 0h-5v4h5v-4z" class="color55acee svgShape color558dee"></path><path fill="#3b5b91" d="M37 3a2 2 0 0 0-2-2H3a2 2 0 0 0 0 4h32a2 2 0 0 0 2-2" class="color5c913b svgShape color3b5b91"></path><path fill="#ffffff" d="M18 1h-4v4h4V1z" class="colorfff svgShape"></path></g></svg></svg></g></svg>