<svg id="SvgjsSvg1072" width="288" height="288" xmlns="http://www.w3.org/2000/svg" version="1.1" xmlns:xlink="http://www.w3.org/1999/xlink" xmlns:svgjs="http://svgjs.com/svgjs"><defs id="SvgjsDefs1073"></defs><g id="SvgjsG1074"><svg xmlns="http://www.w3.org/2000/svg" viewBox="0 0 32 32" width="288" height="288"><g transform="translate(222.001 -1320.362)" fill="#000000" class="color000 svgShape"><path fill="#5382f1" d="M-219.5 1339.057v-5.195h2v5.195" color="#000" overflow="visible" style="isolation:auto;mix-blend-mode:normal" class="colorf17f53 svgShape"></path><circle cx="-200.504" cy="1342.86" r="3.503" fill="#2550b3" color="#000" overflow="visible" style="isolation:auto;mix-blend-mode:normal" class="color25b39e svgShape"></circle><path fill="#4276f0" d="M-206.5 1337.862v12h-13v-12" color="#000" overflow="visible" style="isolation:auto;mix-blend-mode:normal" class="colorf05542 svgShape"></path><rect style="isolation:auto;mix-blend-mode:normal" width="3" height="7" x="-214.5" y="1342.862" fill="#57637e" color="#000" overflow="visible" rx="0" ry="0" class="color576d7e svgShape"></rect><path fill="#4276f0" fill-rule="evenodd" d="m-221.494 1339.856 8.494-8.822 8.494 8.822" class="colorf05542 svgShape"></path><circle cx="-213" cy="1336.862" r="2" fill="#4b7beb" fill-opacity=".944" color="#000" overflow="visible" style="isolation:auto;mix-blend-mode:normal" class="color4bbfeb svgShape"></circle><path fill="none" stroke="#2b3855" d="M-200.496 1342.362v8" class="colorStroke2b4255 svgStroke"></path><path fill="none" stroke="#2b3855" stroke-linecap="round" stroke-linejoin="round" d="m-200.496 1344.362-2-2m2 2.995 1.5-1.5" class="colorStroke2b4255 svgStroke"></path><rect width="5" height="12.5" x="-196.001" y="1332.862" fill="#607ec5" color="#000" overflow="visible" rx="2.5" ry="2.5" style="isolation:auto;mix-blend-mode:normal" class="color60c5b8 svgShape"></rect><path fill="none" stroke="#2b3855" d="M-193.501 1335.407v14.955" class="colorStroke2b4255 svgStroke"></path><path fill="none" stroke="#2b3855" stroke-linecap="round" stroke-linejoin="round" d="m-193.496 1344.112 1.5-1.5m-1.51 1.5-1.5-1.5m1.51-1.5 1.5-1.5m-1.51 1.5-1.5-1.5m1.51-1.5 1.5-1.5m-1.51 1.5-1.5-1.5" class="colorStroke2b4255 svgStroke"></path><path fill="none" stroke="#2b3855" d="M-222.001 1349.862h17m1 0h1m1 0h4m1 0h1m1 0h5" class="colorStroke2b4255 svgStroke"></path><circle cx="-206.001" cy="1328.362" r="3" fill="#6290fc" color="#000" overflow="visible" style="isolation:auto;mix-blend-mode:normal" class="colorfcd062 svgShape"></circle><path fill="none" stroke="#2b3855" d="M-209.001 1351.862h1m1 0h8m-12 0h1" class="colorStroke2b4255 svgStroke"></path><path fill="#789cf0" d="M-215.282 1321.362a2.031 2.031 0 0 0-1.644.84 1.25 1.25 0 0 0-.7-.215 1.25 1.25 0 0 0-1.25 1.25 1.25 1.25 0 0 0 .013.167.781.781 0 0 0-.482-.167.781.781 0 0 0-.765.625h-.016c-.693 0-1.25.558-1.25 1.25 0 .693.557 1.25 1.25 1.25h6.25a1.247 1.247 0 0 0 .536-2.376 2.031 2.031 0 0 0 .089-.593 2.031 2.031 0 0 0-2.032-2.03zm20.96.572a1.393 1.393 0 0 0-1.127.576.857.857 0 0 0-.48-.148.857.857 0 0 0-.858.857.857.857 0 0 0 .01.115.536.536 0 0 0-.331-.115.536.536 0 0 0-.525.429h-.01a.855.855 0 0 0-.858.857c0 .475.382.857.857.857h4.286a.855.855 0 0 0 .367-1.63 1.393 1.393 0 0 0 .061-.406 1.393 1.393 0 0 0-1.392-1.392z" class="color78c8f0 svgShape"></path><path fill="none" stroke="#caced8" d="M-217.501 1328.362h3m-4 0h-1m-1 0h-1m20.501-1.5h1m1 0h1m1 0h1m-8.501-4.5h4m1 0h1" class="colorStrokecad1d8 svgStroke"></path></g></svg></g></svg>