<svg id="SvgjsSvg1093" width="288" height="288" xmlns="http://www.w3.org/2000/svg" version="1.1" xmlns:xlink="http://www.w3.org/1999/xlink" xmlns:svgjs="http://svgjs.com/svgjs"><defs id="SvgjsDefs1094"></defs><g id="SvgjsG1095"><svg xmlns="http://www.w3.org/2000/svg" xmlns:xlink="http://www.w3.org/1999/xlink" enable-background="new 0 0 50 50" viewBox="0 0 50 50" width="288" height="288"><polygon fill="#bfbfbf" points="49 30.291 48.996 32.112 26.648 45.1 26.652 43.278" class="colorBFBFBF svgShape"></polygon><polygon fill="#d6d6d6" points="26.652 43.278 26.648 45.1 1 30.292 1.004 28.47" class="colorD6D6D6 svgShape"></polygon><polygon fill="#4b7891" points="49 32.112 48.996 33.933 26.648 46.92 26.652 45.099" class="color91684B svgShape"></polygon><polygon fill="#598aa5" points="26.652 45.099 26.648 46.92 1 32.112 1.004 30.291" class="colorA57859 svgShape"></polygon><polygon fill="#f1f1f1" points="49 30.291 26.652 43.278 1.004 28.47 23.352 15.483" class="colorF1F1F1 svgShape"></polygon><polygon fill="#3896c8" points="2.999 28.468 23.354 16.639 47.005 30.294 26.65 42.123" class="colorA9C838 svgShape"></polygon><polygon fill="#d6d6d6" points="22.025 21.936 36.648 13.438 36.616 24.416 21.994 32.913" class="colorD6D6D6 svgShape"></polygon><polygon fill="#f1f1f1" points="16.045 11.578 23.272 22.656 22.025 21.936 21.994 32.913 9.987 25.981 10.018 15.004" class="colorF1F1F1 svgShape"></polygon><polygon fill="#2185bb" points="30.663 3.08 16.048 11.578 14.519 12.473 7.244 15.172 8.784 14.276 8.806 14.265 23.388 5.788" class="color2174BB svgShape"></polygon><polygon fill="#767778" points="16.135 29.229 16.392 29.08 13.296 27.292 13.039 27.441" class="color787677 svgShape"></polygon><polygon fill="#3d3d3d" points="13.039 27.441 13.296 27.292 13.318 19.599 13.061 19.748" class="color3D3D3D svgShape"></polygon><polygon fill="#3d3d3d" points="16.39 29.671 16.647 29.821 16.671 21.235 16.414 21.384" class="color3D3D3D svgShape"></polygon><polygon fill="#767778" points="16.414 21.384 16.671 21.235 13.063 19.151 12.806 19.301" class="color787677 svgShape"></polygon><path fill="#686868" d="M16.3904,29.6712l-3.6084-2.0833l0.0235-8.2872l3.6084,2.0833L16.3904,29.6712z M13.0389,27.4414
										l3.0962,1.7876l0.0218-7.6933l-3.0962-1.7876L13.0389,27.4414" class="color686868 svgShape"></path><polygon fill="#4b7891" points="14.803 22.302 14.8 23.244 15.911 23.876 15.914 22.935" class="color91684B svgShape"></polygon><polygon fill="#4b7891" points="14.8 23.44 14.797 24.381 15.908 25.014 15.911 24.072" class="color91684B svgShape"></polygon><polygon fill="#4b7891" points="14.797 24.573 14.794 25.654 15.905 26.286 15.908 25.205" class="color91684B svgShape"></polygon><polygon fill="#4b7891" points="13.525 22.714 13.523 23.656 14.634 24.288 14.636 23.347" class="color91684B svgShape"></polygon><polygon fill="#4b7891" points="13.522 23.847 13.519 24.928 14.63 25.561 14.633 24.48" class="color91684B svgShape"></polygon><path fill="#4b7891" d="M15.9588,28.6273l-2.5062-1.4267l0.0056-2.0535l2.5062,1.4267L15.9588,28.6273z M13.5736,27.1244
									l2.265,1.2894l0.0048-1.7689l-2.265-1.2894L13.5736,27.1244" class="color91684B svgShape"></path><polygon fill="#2c5870" points="13.578 25.355 13.574 27.124 15.839 28.414 15.843 26.645" class="color704E2C svgShape"></polygon><polygon fill="#4b7891" points="14.806 21.03 14.803 22.111 15.914 22.743 15.917 21.662" class="color91684B svgShape"></polygon><path fill="#2c5870" d="M16.1391,28.9474l-2.8679-1.6326l0.0202-7.4374l2.8679,1.6326L16.1391,28.9474z M13.4526,27.2006
										l2.5062,1.4267l0.0056-2.0535l-2.5062-1.4267L13.4526,27.2006 M14.6331,24.4796l-1.111-0.6325l-0.0029,1.0809l1.111,0.6325
										L14.6331,24.4796 M15.9077,25.2052l-1.111-0.6324l-0.0029,1.0809l1.111,0.6324L15.9077,25.2052 M14.6427,20.9367
										l-1.111-0.6325l-0.0029,1.0809l1.111,0.6325L14.6427,20.9367 M15.9173,21.6623l-1.111-0.6324l-0.0029,1.0809l1.111,0.6324
										L15.9173,21.6623 M14.6392,22.209l-1.111-0.6325l-0.0026,0.9414l1.111,0.6325L14.6392,22.209 M14.6362,23.3468
										l-1.111-0.6325l-0.0026,0.9414l1.111,0.6325L14.6362,23.3468 M15.9139,22.9346l-1.111-0.6324l-0.0026,0.9414l1.111,0.6324
										L15.9139,22.9346 M15.9108,24.0724l-1.111-0.6324l-0.0026,0.9414l1.111,0.6324L15.9108,24.0724" class="color704E2C svgShape"></path><polygon fill="#4b7891" points="13.528 21.576 13.526 22.518 14.637 23.15 14.639 22.209" class="color91684B svgShape"></polygon><polygon fill="#4b7891" points="13.532 20.304 13.529 21.385 14.64 22.018 14.643 20.937" class="color91684B svgShape"></polygon><g fill="#000000" class="color000 svgShape"><polygon fill="#1176ac" points="37.894 14.156 23.279 22.654 23.268 22.654 21.739 23.549 14.519 12.473 16.048 11.578 30.663 3.08" class="color115EAC svgShape"></polygon><polygon fill="#1b5270" points="14.514 12.468 21.741 23.553 21.37 23.86 14.511 13.333 7.616 15.903 7.248 15.168" class="color1B3F70 svgShape"></polygon></g><g fill="#000000" class="color000 svgShape"><path fill="#57b5e7" d="M14.7372,16.8633c0.9757,0.5633,1.7789,1.8719,1.8967,3.0215L12.834,17.691
								C12.949,16.6808,13.7615,16.3,14.7372,16.8633z" class="color57B7E7 svgShape"></path><path fill="#d6d6d6" d="M13.5258,16.6447c-0.2945,0.1684-0.4907,0.498-0.5468,0.9605l-0.1472,0.0842
							c0.0561-0.4556,0.2524-0.7852,0.5398-0.9605L13.5258,16.6447z" class="colorD6D6D6 svgShape"></path><defs><path id="a" d="M13.3747,16.7321l0.1482-0.0861
									c0.3483-0.2024,0.8312-0.1756,1.3625,0.1312l-0.1482,0.0861C14.2059,16.5565,13.7229,16.5298,13.3747,16.7321z" enable-background="new" fill="#000000" class="color000 svgShape"></path></defs><clipPath id="b"><use overflow="visible" xlink:href="#a"></use></clipPath><g clip-path="url(#b)" fill="#000000" class="color000 svgShape"><path fill="#226081" d="M13.3747,16.7321l0.1482-0.0861c0.0496-0.0288,0.1019-0.053,0.1567-0.0723l-0.1482,0.0861
									C13.4765,16.6792,13.4242,16.7033,13.3747,16.7321" class="color226381 svgShape"></path><path fill="#246486" d="M13.5313,16.6598l0.1482-0.0861c0.0439-0.0155,0.0895-0.028,0.1365-0.0373l-0.1482,0.0861
									C13.6208,16.6318,13.5753,16.6443,13.5313,16.6598" class="color246686 svgShape"></path><path fill="#22688d" d="M13.6678,16.6225l0.1482-0.0861c0.0358-0.0071,0.0724-0.0123,0.1098-0.0157l-0.1482,0.0861
									C13.7402,16.6102,13.7036,16.6154,13.6678,16.6225" class="color226A8D svgShape"></path><path fill="#276b90" d="M13.7776,16.6068l0.1482-0.0861c0.0319-0.0029,0.0644-0.0044,0.0974-0.0046l-0.1482,0.0861
									C13.842,16.6024,13.8095,16.6039,13.7776,16.6068" class="color276E90 svgShape"></path><path fill="#266f97" d="M13.875,16.6022l0.1482-0.0861c0.0299-0.0001,0.0602,0.0008,0.0909,0.003l-0.1482,0.0861
									C13.9352,16.603,13.9049,16.602,13.875,16.6022" class="color267197 svgShape"></path><path fill="#26739c" d="M13.9659,16.6051l0.1482-0.0861c0.0287,0.002,0.0577,0.0049,0.0871,0.0089l-0.1482,0.0861
									C14.0236,16.6101,13.9946,16.6071,13.9659,16.6051" class="color26759C svgShape"></path><path fill="#2877a1" d="M14.053,16.6141l0.1482-0.0861c0.0268,0.0036,0.054,0.0081,0.0814,0.0134l-0.1482,0.0861
									C14.1069,16.6222,14.0798,16.6177,14.053,16.6141" class="color2879A1 svgShape"></path><path fill="#2c7ba6" d="M14.1343,16.6275l0.1482-0.0861c0.0264,0.0051,0.0531,0.011,0.08,0.0178l-0.1482,0.0861
									C14.1874,16.6385,14.1608,16.6326,14.1343,16.6275" class="color2C7DA6 svgShape"></path><path fill="#2c7da9" d="M14.2144,16.6453l0.1482-0.0861c0.0259,0.0065,0.0521,0.0137,0.0784,0.0216l-0.1482,0.0861
									C14.2664,16.6589,14.2403,16.6517,14.2144,16.6453" class="color2C80A9 svgShape"></path><path fill="#2b80ae" d="M14.2928,16.6669l0.1482-0.0861c0.0254,0.0077,0.0509,0.016,0.0767,0.0251l-0.1482,0.0861
									C14.3437,16.6829,14.3181,16.6745,14.2928,16.6669" class="color2B82AE svgShape"></path><path fill="#2b83b3" d="M14.3695,16.692l0.1482-0.0861c0.0255,0.009,0.0511,0.0186,0.0769,0.0289l-0.1482,0.0861
									C14.4205,16.7106,14.3949,16.7009,14.3695,16.692" class="color2B86B3 svgShape"></path><path fill="#2e89ba" d="M14.4463,16.7209l0.1482-0.0861c0.0252,0.0101,0.0506,0.0208,0.0761,0.0323l-0.1482,0.0861
									C14.4969,16.7417,14.4715,16.731,14.4463,16.7209" class="color2E8BBA svgShape"></path><path fill="#2d8cbf" d="M14.5224,16.7531l0.1482-0.0861c0.0255,0.0114,0.0511,0.0235,0.0768,0.0362l-0.1482,0.0861
									C14.5735,16.7766,14.5479,16.7646,14.5224,16.7531" class="color2D90BF svgShape"></path><path fill="#3090c3" d="M14.5992,16.7894l0.1482-0.0861c0.0258,0.0127,0.0517,0.0262,0.0777,0.0402l-0.1482,0.0861
									C14.6509,16.8155,14.625,16.8021,14.5992,16.7894" class="color3091C3 svgShape"></path><path fill="#3093c8" d="M14.6769,16.8296l0.1482-0.0861c0.02,0.0108,0.0401,0.0221,0.0603,0.0337l-0.1482,0.0861
									C14.717,16.8517,14.6969,16.8404,14.6769,16.8296" class="color3095C8 svgShape"></path></g><polygon fill="#bfbfbf" points="12.834 17.691 12.982 17.605 16.782 19.799 16.634 19.885" class="colorBFBFBF svgShape"></polygon><defs><path id="c" d="M14.7372,16.8633l0.1482-0.0861
									c0.9757,0.5633,1.7789,1.8719,1.8967,3.0215l-0.1482,0.0861C16.5161,18.7352,15.7129,17.4266,14.7372,16.8633z" enable-background="new" fill="#000000" class="color000 svgShape"></path></defs><clipPath id="d"><use overflow="visible" xlink:href="#c"></use></clipPath><g clip-path="url(#d)" fill="#000000" class="color000 svgShape"><path fill="#3093c8" d="M14.7372,16.8633l0.1482-0.0861c0.0062,0.0036,0.0125,0.0072,0.0187,0.0109l-0.1482,0.0861
									C14.7497,16.8705,14.7434,16.8669,14.7372,16.8633" class="color3095C8 svgShape"></path><path fill="#3196cd" d="M14.7559,16.8742l0.1482-0.0861c0.027,0.0159,0.0538,0.0323,0.0805,0.0493l-0.1482,0.0861
									C14.8097,16.9065,14.7828,16.8901,14.7559,16.8742" class="color3199CD svgShape"></path><path fill="#369bd2" d="M14.8363,16.9235l0.1482-0.0861c0.0272,0.0173,0.0543,0.0352,0.0812,0.0537l-0.1482,0.0861
									C14.8906,16.9587,14.8636,16.9408,14.8363,16.9235" class="color369DD2 svgShape"></path><path fill="#369fd7" d="M14.9175,16.9771l0.1482-0.0861c0.0276,0.0189,0.0551,0.0385,0.0824,0.0586l-0.1482,0.0861
									C14.9727,17.0156,14.9452,16.9961,14.9175,16.9771" class="color36A1D7 svgShape"></path><path fill="#37a2db" d="M14.9999,17.0357l0.1482-0.0861c0.0283,0.0208,0.0564,0.0423,0.0843,0.0643L15.0842,17.1
									C15.0563,17.078,15.0282,17.0565,14.9999,17.0357" class="color37A2DB svgShape"></path><path fill="#3ba5de" d="M15.0842,17.1l0.1482-0.0861c0.0284,0.0224,0.0565,0.0454,0.0844,0.0689l-0.1482,0.0861
									C15.1407,17.1453,15.1126,17.1224,15.0842,17.1" class="color3BA7DE svgShape"></path><path fill="#3ca7e0" d="M15.1686,17.1689l0.1482-0.0861c0.0288,0.0243,0.0573,0.0491,0.0855,0.0746l-0.1482,0.0861
									C15.2259,17.218,15.1974,17.1931,15.1686,17.1689" class="color3CA9E0 svgShape"></path><path fill="#43aae1" d="M15.2541,17.2435l0.1482-0.0861c0.0281,0.0254,0.056,0.0513,0.0836,0.0777l-0.1482,0.0861
									C15.3101,17.2947,15.2822,17.2688,15.2541,17.2435" class="color43ADE1 svgShape"></path><path fill="#4baee3" d="M15.3377,17.3212l0.1482-0.0861c0.0275,0.0264,0.0547,0.0533,0.0816,0.0807l-0.1482,0.0861
									C15.3924,17.3745,15.3652,17.3476,15.3377,17.3212" class="color4BB0E3 svgShape"></path><path fill="#53b2e5" d="M15.4193,17.4019l0.1482-0.0861c0.0261,0.0266,0.0519,0.0536,0.0774,0.0811l-0.1482,0.0861
									C15.4712,17.4555,15.4454,17.4284,15.4193,17.4019" class="color53B4E5 svgShape"></path><path fill="#57b5e7" d="M15.4967,17.483l0.1482-0.0861c0.0254,0.0274,0.0505,0.0552,0.0753,0.0834l-0.1482,0.0861
									C15.5472,17.5382,15.5221,17.5104,15.4967,17.483" class="color57B7E7 svgShape"></path><path fill="#62bcec" d="M15.572,17.5664l0.1482-0.0861c0.0247,0.0281,0.0491,0.0567,0.0732,0.0856l-0.1482,0.0861
									C15.6211,17.6231,15.5967,17.5946,15.572,17.5664" class="color62C0EC svgShape"></path><path fill="#69bfee" d="M15.6452,17.6521l0.1482-0.0861c0.0256,0.0308,0.0509,0.062,0.0758,0.0937l-0.1482,0.0861
									C15.6961,17.7141,15.6708,17.6829,15.6452,17.6521" class="color69C3EE svgShape"></path><path fill="#6fc2ef" d="M15.721,17.7458l0.1482-0.0861c0.0268,0.0341,0.0532,0.0687,0.0792,0.1038l-0.1482,0.0861
									C15.7742,17.8145,15.7478,17.7799,15.721,17.7458" class="color6FC6EF svgShape"></path><path fill="#76c5ef" d="M15.8001,17.8495l0.1482-0.0861c0.0378,0.051,0.0746,0.103,0.1104,0.1558l-0.1482,0.0861
									C15.8747,17.9525,15.8379,17.9006,15.8001,17.8495" class="color76C7EF svgShape"></path><path fill="#79c6f0" d="M15.9105,18.0054l0.1482-0.0861c0.0541,0.0798,0.1058,0.1615,0.155,0.2448l-0.1482,0.0861
									C16.0163,18.1669,15.9646,18.0852,15.9105,18.0054" class="color79CBF0 svgShape"></path><path fill="#76c5ef" d="M16.0655,18.2502l0.1482-0.0861c0.0345,0.0583,0.0677,0.1174,0.0996,0.1771l-0.1482,0.0861
									C16.1332,18.3675,16.1,18.3085,16.0655,18.2502" class="color76C7EF svgShape"></path><path fill="#6fc2ef" d="M16.1651,18.4272l0.1482-0.0861c0.0206,0.0386,0.0407,0.0774,0.0602,0.1165l-0.1482,0.0861
									C16.2057,18.5047,16.1857,18.4658,16.1651,18.4272" class="color6FC6EF svgShape"></path><path fill="#69bfee" d="M16.2252,18.5437l0.1482-0.0861c0.0167,0.0334,0.0329,0.067,0.0488,0.1008l-0.1482,0.0861
									C16.2582,18.6108,16.2419,18.5772,16.2252,18.5437" class="color69C3EE svgShape"></path><path fill="#62bcec" d="M16.274,18.6445l0.1482-0.0861c0.0145,0.0309,0.0286,0.0619,0.0424,0.093l-0.1482,0.0861
									C16.3026,18.7064,16.2885,18.6754,16.274,18.6445" class="color62C0EC svgShape"></path><path fill="#57b5e7" d="M16.3164,18.7376l0.1482-0.0861c0.0136,0.0307,0.0268,0.0615,0.0396,0.0923l-0.1482,0.0861
									C16.3431,18.799,16.3299,18.7682,16.3164,18.7376" class="color57B7E7 svgShape"></path><path fill="#53b2e5" d="M16.3559,18.8299l0.1482-0.0861c0.0129,0.031,0.0254,0.0622,0.0375,0.0933l-0.1482,0.0861
									C16.3813,18.892,16.3688,18.8609,16.3559,18.8299" class="color53B4E5 svgShape"></path><path fill="#4baee3" d="M16.3935,18.9232l0.1482-0.0861c0.0122,0.0313,0.024,0.0627,0.0354,0.0942l-0.1482,0.0861
									C16.4175,18.9859,16.4057,18.9545,16.3935,18.9232" class="color4BB0E3 svgShape"></path><path fill="#43aae1" d="M16.4289,19.0174l0.1482-0.0861c0.0119,0.0327,0.0233,0.0655,0.0343,0.0983l-0.1482,0.0861
									C16.4521,19.0828,16.4407,19.0501,16.4289,19.0174" class="color43ADE1 svgShape"></path><path fill="#3ca7e0" d="M16.4631,19.1156l0.1482-0.0861c0.0111,0.0331,0.0217,0.0663,0.0319,0.0994l-0.1482,0.0861
									C16.4848,19.1819,16.4742,19.1488,16.4631,19.1156" class="color3CA9E0 svgShape"></path><path fill="#3ba5de" d="M16.495,19.2151l0.1482-0.0861c0.0104,0.0339,0.0203,0.0678,0.0297,0.1017l-0.1482,0.0861
									C16.5153,19.2829,16.5054,19.249,16.495,19.2151" class="color3BA7DE svgShape"></path><path fill="#37a2db" d="M16.5247,19.3168l0.1482-0.0861c0.0094,0.0339,0.0183,0.0677,0.0267,0.1015l-0.1482,0.0861
									C16.543,19.3845,16.5341,19.3506,16.5247,19.3168" class="color37A2DB svgShape"></path><path fill="#369fd7" d="M16.5514,19.4183l0.1482-0.0861c0.0084,0.0338,0.0162,0.0675,0.0236,0.1012l-0.1482,0.0861
									C16.5676,19.4858,16.5597,19.4521,16.5514,19.4183" class="color36A1D7 svgShape"></path><path fill="#369bd2" d="M16.575,19.5195l0.1482-0.0861c0.0072,0.033,0.0139,0.066,0.0201,0.0989l-0.1482,0.0861
									C16.5889,19.5855,16.5822,19.5525,16.575,19.5195" class="color369DD2 svgShape"></path><path fill="#3196cd" d="M16.595,19.6184l0.1482-0.0861c0.0062,0.0327,0.0118,0.0654,0.0169,0.0979l-0.1482,0.0861
									C16.6068,19.6838,16.6012,19.6511,16.595,19.6184" class="color3199CD svgShape"></path><path fill="#3093c8" d="M16.612,19.7163l0.1482-0.0861c0.005,0.0317,0.0095,0.0634,0.0135,0.0949l-0.1482,0.0861
									C16.6215,19.7797,16.617,19.748,16.612,19.7163" class="color3095C8 svgShape"></path><path fill="#3090c3" d="M16.6255,19.8112l0.1482-0.0861c0.0031,0.0246,0.0059,0.0492,0.0085,0.0736l-0.1482,0.0861
									C16.6314,19.8604,16.6286,19.8358,16.6255,19.8112" class="color3091C3 svgShape"></path></g><path fill="#bfbfbf" d="M17.0556,20.2115v0.0561l-0.1472,0.0842v-0.0281c0-0.1821-0.014-0.3645-0.0491-0.5538
							c0-0.0209-0.007-0.0489-0.007-0.0698c-0.028-0.1544-0.0701-0.3087-0.1192-0.4628c-0.2384-0.8061-0.7221-1.5985-1.3249-2.166
							c-0.2103-0.2033-0.4346-0.3786-0.673-0.5121c-0.1682-0.0979-0.3295-0.1681-0.4837-0.217
							c-0.0701-0.0212-0.1332-0.0421-0.1963-0.0493c-0.3295-0.0698-0.6309-0.0281-0.8692,0.1123l0.1472-0.0842
							c0.2384-0.1403,0.5398-0.1821,0.8763-0.1191c0.0561,0.014,0.1262,0.0349,0.1893,0.0489
							c0.1542,0.0561,0.3155,0.1263,0.4837,0.2245c0.2384,0.1332,0.4627,0.3084,0.673,0.5117
							c0.6029,0.5679,1.0866,1.3599,1.3249,2.166c0.0491,0.1544,0.0911,0.3084,0.1192,0.4628c0,0.0209,0.007,0.0421,0.007,0.063
							C17.0416,19.861,17.0556,20.0434,17.0556,20.2115z" class="colorBFBFBF svgShape"></path><path fill="#ffffff" d="M14.738,16.5597c1.204,0.6951,2.1765,2.3795,2.1726,3.7632l-0.0001,0.0307l-4.3549-2.5143
								l-0.0044-0.0333C12.5552,16.4224,13.5341,15.8646,14.738,16.5597z M12.834,17.691l3.7999,2.1939
								c-0.1178-1.1496-0.921-2.4582-1.8967-3.0215C13.7615,16.3,12.949,16.6808,12.834,17.691" class="colorFFF svgShape"></path></g><g fill="#000000" class="color000 svgShape"><polygon fill="#686868" points="20.577 9.684 20.585 12.445 21.608 13.039 21.6 10.278" class="color686868 svgShape"></polygon><polygon fill="#4d4e4f" points="19.085 10.545 19.093 13.306 20.635 12.502 20.627 9.741" class="color4F4D4D svgShape"></polygon><polygon fill="#d6d6d6" points="20.106 11.449 20.114 16.191 22.142 15.02 22.134 10.278" class="colorD6D6D6 svgShape"></polygon><polygon fill="#bfbfbf" points="18.55 10.545 18.558 13.306 20.114 16.191 20.106 11.449" class="colorBFBFBF svgShape"></polygon><path fill="#264d62" d="M22.1343,10.2783l-2.0284,1.1711l-1.5556-0.904l2.0284-1.1711L22.1343,10.2783z M20.1076,11.1397
						l1.4921-0.8615L20.577,9.6839l-1.4921,0.8615L20.1076,11.1397" class="color624426 svgShape"></path><polygon fill="#686868" points="20.621 9.086 20.627 9.741 21.751 10.394 21.745 9.739" class="color686868 svgShape"></polygon><polygon fill="#4d4e4f" points="18.982 10.032 18.988 10.687 20.627 9.741 20.621 9.086" class="color4F4D4D svgShape"></polygon><polygon fill="#bfbfbf" points="20.104 11.024 20.11 11.679 22.335 10.394 22.329 9.739" class="colorBFBFBF svgShape"></polygon><polygon fill="#afb0b0" points="18.394 10.03 18.4 10.685 20.11 11.679 20.104 11.024" class="colorB0AFB0 svgShape"></polygon><path fill="#e8e8e8" d="M22.3292,9.7388l-2.2252,1.2847l-1.7097-0.9936l2.2252-1.2847L22.3292,9.7388z M20.1059,10.6851
						l1.6391-0.9463l-1.1239-0.6532L18.982,10.032L20.1059,10.6851" class="colorE8E8E8 svgShape"></path></g><g fill="#000000" class="color000 svgShape"><polygon fill="#4d4e4f" points="10.559 26.259 11.567 26.841 11.568 26.429 10.559 25.847 10.558 26.26" class="color4F4D4D svgShape"></polygon><polygon fill="#3d3d3d" points="10.558 26.26 10.559 25.847 9.559 26.429 9.554 27.954 9.556 27.953 9.559 26.841" class="color3D3D3D svgShape"></polygon><rect width=".001" height="1.113" x="10.557" y="26.26" fill="#3d3d3d" class="color3D3D3D svgShape"></rect><polygon fill="#4b7891" points="11.566 26.84 11.564 27.956 10.555 27.374 10.555 27.372 9.556 27.954 9.558 26.84 10.559 26.26" class="color91684B svgShape"></polygon><polygon fill="#4d4e4f" points="10.568 27.164 10.564 28.69 9.29 27.954 9.294 26.429" class="color4F4D4D svgShape"></polygon><polygon fill="#3d3d3d" points="11.832 26.429 11.828 27.955 10.564 28.69 10.568 27.164" class="color3D3D3D svgShape"></polygon><path fill="#686868" d="M10.5586,25.6938l1.2738,0.7354l-1.2643,0.7348l-1.2738-0.7354L10.5586,25.6938z M10.5673,27.0108
							l1.0008-0.5816l-1.0085-0.5823l-1.0008,0.5816L10.5673,27.0108" class="color686868 svgShape"></path><g fill="#000000" class="color000 svgShape"><polygon fill="#598aa5" points="10.762 25.24 10.758 26.595 10.551 26.715 10.555 25.36" class="colorA57859 svgShape"></polygon><polygon fill="#749eb4" points="10.555 25.36 10.551 26.715 10.343 26.595 10.347 25.24" class="colorB48F74 svgShape"></polygon><polygon fill="#85abc0" points="10.762 25.24 10.555 25.36 10.347 25.24 10.554 25.12" class="colorC09D85 svgShape"></polygon></g><path fill="#4388ad" d="M11.3139,24.8787c0,0.4212-0.3415,0.7627-0.7627,0.7627s-0.7627-0.3415-0.7627-0.7627
					s0.3415-1.9345,0.7627-1.9345S11.3139,24.4574,11.3139,24.8787z" class="color72AD43 svgShape"></path></g><g fill="#000000" class="color000 svgShape"><polygon fill="#4d4e4f" points="20.003 31.334 21.011 31.916 21.012 31.504 20.003 30.922 20.002 31.335" class="color4F4D4D svgShape"></polygon><polygon fill="#3d3d3d" points="20.002 31.335 20.003 30.922 19.003 31.503 18.998 33.029 18.999 33.029 19.003 31.916" class="color3D3D3D svgShape"></polygon><rect width=".001" height="1.113" x="20" y="31.335" fill="#3d3d3d" class="color3D3D3D svgShape"></rect><polygon fill="#4b7891" points="21.01 31.915 21.008 33.031 19.999 32.449 19.999 32.447 19 33.029 19.002 31.915 20.003 31.335" class="color91684B svgShape"></polygon><polygon fill="#4d4e4f" points="20.012 32.239 20.008 33.765 18.734 33.029 18.738 31.503" class="color4F4D4D svgShape"></polygon><polygon fill="#3d3d3d" points="21.276 31.504 21.272 33.03 20.008 33.765 20.012 32.239" class="color3D3D3D svgShape"></polygon><path fill="#686868" d="M20.0025,30.7688l1.2738,0.7354l-1.2643,0.7348l-1.2738-0.7354L20.0025,30.7688z M20.0111,32.0858
							l1.0008-0.5816l-1.0085-0.5823l-1.0008,0.5816L20.0111,32.0858" class="color686868 svgShape"></path><g fill="#000000" class="color000 svgShape"><polygon fill="#598aa5" points="20.206 30.315 20.202 31.669 19.995 31.79 19.999 30.435" class="colorA57859 svgShape"></polygon><polygon fill="#749eb4" points="19.999 30.435 19.995 31.79 19.787 31.67 19.791 30.315" class="colorB48F74 svgShape"></polygon><polygon fill="#85abc0" points="20.206 30.315 19.999 30.435 19.791 30.315 19.998 30.195" class="colorC09D85 svgShape"></polygon></g><path fill="#4388ad" d="M20.7577,29.9536c0,0.4212-0.3415,0.7627-0.7627,0.7627s-0.7627-0.3415-0.7627-0.7627
					s0.3415-1.9345,0.7627-1.9345S20.7577,29.5324,20.7577,29.9536z" class="color72AD43 svgShape"></path></g><g fill="#000000" class="color000 svgShape"><polygon fill="#f1f1f1" points="33.715 25.669 25.442 20.862 25.471 30.939 33.743 35.747" class="colorF1F1F1 svgShape"></polygon><polygon fill="#d6d6d6" points="39.205 16.161 32.57 26.33 33.715 25.669 33.743 35.747 44.766 29.383 44.738 19.305" class="colorD6D6D6 svgShape"></polygon><polygon fill="#006399" points="27.378 9.283 39.202 16.16 40.606 16.983 47.284 19.46 45.87 18.637 45.85 18.627 37.615 13.839" class="color005C99 svgShape"></polygon><polygon fill="#2185bb" points="24.298 21.452 32.564 26.259 32.574 26.259 33.977 27.082 40.606 16.914 39.202 16.092 27.378 9.214" class="color2174BB svgShape"></polygon><polygon fill="#1b5270" points="40.611 16.978 33.975 27.154 34.316 27.436 40.613 17.772 46.943 20.131 47.281 19.457" class="color1B3F70 svgShape"></polygon></g><g fill="#000000" class="color000 svgShape"><polygon fill="#bfbfbf" points="35.602 14.863 35.575 17.7 31.191 24.578 31.218 17.411" class="colorBFBFBF svgShape"></polygon><polygon fill="#d6d6d6" points="31.218 17.414 31.19 23.205 31.19 24.58 26.778 22.027 26.778 20.653 26.785 20.186 26.785 19.012 26.792 18.546 26.792 17.358 26.799 16.898 26.799 15.717 26.806 15.251 26.806 14.862 26.94 14.784 26.947 14.784 27.011 14.735 27.018 14.735 27.414 14.501 27.485 14.459 27.888 14.225 27.959 14.183 28.722 13.73 29.719 15.201 29.811 15.335 30.32 16.099 30.327 16.106 30.426 16.24 30.433 16.248 30.942 17.011 31.034 17.138 31.034 17.146" class="colorD6D6D6 svgShape"></polygon><polygon fill="#166793" points="28.697 13.679 33.574 10.845 36.974 16.737 32.096 19.571" class="color164993 svgShape"></polygon><polygon fill="#1b5270" points="28.697 13.679 32.096 19.571 31.897 19.684 28.695 14.135 25.47 15.974 25.272 15.631" class="color1B3F70 svgShape"></polygon><g fill="#000000" class="color000 svgShape"><path fill="#57b5e7" d="M27.6692,21.2126l2.644,1.5241c0.0004-0.1027,0.018-4.4152,0.0169-4.1258l-2.6524-1.5241
						C27.6772,17.1879,27.6712,20.1811,27.6692,21.2126z" class="color57B7E7 svgShape"></path><polygon fill="#7bccf7" points="27.678 17.567 27.678 17.769 30.322 20.379 30.322 20.177" class="color7BD3F7 svgShape"></polygon><polygon fill="#7bccf7" points="27.669 19.318 27.669 19.748 30.313 22.349 30.313 21.937" class="color7BD3F7 svgShape"></polygon><polygon fill="#7bccf7" points="27.669 19.158 30.313 21.768 30.322 20.758 27.678 18.148" class="color7BD3F7 svgShape"></polygon><polygon fill="#7bccf7" points="27.678 17.567 27.678 17.769 30.322 20.379 30.322 20.177" class="color7BD3F7 svgShape"></polygon><polygon fill="#7bccf7" points="27.669 19.318 27.669 19.748 30.313 22.349 30.313 21.937" class="color7BD3F7 svgShape"></polygon><polygon fill="#7bccf7" points="27.669 19.158 30.313 21.768 30.322 20.758 27.678 18.148" class="color7BD3F7 svgShape"></polygon><polygon fill="#bfbfbf" points="27.669 21.209 27.928 21.058 30.574 22.586 30.315 22.736" class="colorBFBFBF svgShape"></polygon><polygon fill="#e8e8e8" points="27.681 17.085 27.94 16.934 27.928 21.058 27.669 21.209" class="colorE8E8E8 svgShape"></polygon><polygon fill="#5a798a" points="30.327 18.612 30.586 18.462 30.574 22.586 30.315 22.736" class="color8A6E5A svgShape"></polygon><polygon fill="#64879a" points="27.681 17.085 27.94 16.934 30.586 18.462 30.327 18.612" class="color9A7B64 svgShape"></polygon><path fill="#ffffff" d="M27.4235,16.6389l3.162,1.8256l-0.0134,4.7177l-3.162-1.8256L27.4235,16.6389z M30.315,22.7363
						l0.0117-4.124l-2.6459-1.5276l-0.0117,4.124L30.315,22.7363" class="colorFFF svgShape"></path></g></g><g fill="#000000" class="color000 svgShape"><path fill="#57b5e7" d="M43.2738,26.3522l-2.8926,1.6674c-0.002-0.4615,0.0068,1.6719-0.0184-4.5138l2.9018-1.6674
					C43.2648,21.9411,43.2741,26.4549,43.2738,26.3522z" class="color57B7E7 svgShape"></path><polygon fill="#7bccf7" points="43.265 22.363 43.265 22.585 40.372 25.44 40.372 25.219" class="color7BD3F7 svgShape"></polygon><polygon fill="#7bccf7" points="43.274 24.279 43.274 24.75 40.381 27.596 40.381 27.145" class="color7BD3F7 svgShape"></polygon><polygon fill="#7bccf7" points="43.274 24.105 40.381 26.96 40.372 25.855 43.265 22.999" class="color7BD3F7 svgShape"></polygon><polygon fill="#7bccf7" points="43.265 22.363 43.265 22.585 40.372 25.44 40.372 25.219" class="color7BD3F7 svgShape"></polygon><polygon fill="#7bccf7" points="43.274 24.279 43.274 24.75 40.381 27.596 40.381 27.145" class="color7BD3F7 svgShape"></polygon><polygon fill="#7bccf7" points="43.274 24.105 40.381 26.96 40.372 25.855 43.265 22.999" class="color7BD3F7 svgShape"></polygon><polygon fill="#f1f1f1" points="43.274 26.348 42.991 26.183 40.096 27.855 40.379 28.019" class="colorF1F1F1 svgShape"></polygon><polygon fill="#bfbfbf" points="43.261 21.836 42.978 21.672 42.991 26.183 43.274 26.348" class="colorBFBFBF svgShape"></polygon><polygon fill="#5a798a" points="40.366 23.508 40.083 23.343 40.096 27.855 40.379 28.019" class="color8A6E5A svgShape"></polygon><polygon fill="#64879a" points="43.261 21.836 42.978 21.672 40.083 23.343 40.366 23.508" class="color9A7B64 svgShape"></polygon><path fill="#686868" d="M43.5572,26.5098l-3.4593,1.9972l-0.0146-5.1614l3.4593-1.9972L43.5572,26.5098z M40.3793,28.0193
					l2.8947-1.6713l-0.0128-4.5118l-2.8947,1.6713L40.3793,28.0193" class="color686868 svgShape"></path></g><g fill="#000000" class="color000 svgShape"><path fill="#57b5e7" d="M39.1128,28.7101l-2.8926,1.6674c-0.002-0.4615,0.0068,1.6719-0.0184-4.5138l2.9018-1.6674
					C39.1038,24.299,39.1131,28.8128,39.1128,28.7101z" class="color57B7E7 svgShape"></path><polygon fill="#7bccf7" points="39.104 24.721 39.104 24.942 36.211 27.798 36.211 27.577" class="color7BD3F7 svgShape"></polygon><polygon fill="#7bccf7" points="39.113 26.637 39.113 27.107 36.22 29.954 36.22 29.503" class="color7BD3F7 svgShape"></polygon><polygon fill="#7bccf7" points="39.113 26.462 36.22 29.318 36.211 28.213 39.104 25.357" class="color7BD3F7 svgShape"></polygon><polygon fill="#7bccf7" points="39.104 24.721 39.104 24.942 36.211 27.798 36.211 27.577" class="color7BD3F7 svgShape"></polygon><polygon fill="#7bccf7" points="39.113 26.637 39.113 27.107 36.22 29.954 36.22 29.503" class="color7BD3F7 svgShape"></polygon><polygon fill="#7bccf7" points="39.113 26.462 36.22 29.318 36.211 28.213 39.104 25.357" class="color7BD3F7 svgShape"></polygon><polygon fill="#f1f1f1" points="39.113 28.706 38.83 28.541 35.935 30.213 36.218 30.377" class="colorF1F1F1 svgShape"></polygon><polygon fill="#bfbfbf" points="39.1 24.194 38.817 24.029 38.83 28.541 39.113 28.706" class="colorBFBFBF svgShape"></polygon><polygon fill="#5a798a" points="36.205 25.865 35.922 25.701 35.935 30.213 36.218 30.377" class="color8A6E5A svgShape"></polygon><polygon fill="#64879a" points="39.1 24.194 38.817 24.029 35.922 25.701 36.205 25.865" class="color9A7B64 svgShape"></polygon><path fill="#686868" d="M39.3962,28.8677l-3.4593,1.9972l-0.0146-5.1614l3.4593-1.9972L39.3962,28.8677z M36.2183,30.3772
					l2.8947-1.6713l-0.0128-4.5118l-2.8947,1.6713L36.2183,30.3772" class="color686868 svgShape"></path></g><g fill="#000000" class="color000 svgShape"><polygon fill="#686868" points="33.031 34.962 33.032 34.534 26.446 30.731 26.444 31.16" class="color686868 svgShape"></polygon><polygon fill="#4d4e4f" points="26.446 30.637 26.446 30.731 33.032 34.534 33.032 34.44" class="color4F4D4D svgShape"></polygon><polygon fill="#686868" points="33.032 34.44 33.034 33.969 26.447 30.167 26.446 30.637" class="color686868 svgShape"></polygon><polygon fill="#4d4e4f" points="26.448 30.073 26.447 30.167 33.034 33.969 33.034 33.875" class="color4F4D4D svgShape"></polygon><polygon fill="#686868" points="33.034 33.875 33.035 33.405 26.449 29.602 26.448 30.073" class="color686868 svgShape"></polygon><polygon fill="#4d4e4f" points="26.449 29.508 26.449 29.602 33.035 33.405 33.036 33.31" class="color4F4D4D svgShape"></polygon><polygon fill="#686868" points="33.036 33.31 33.037 32.84 26.45 29.038 26.449 29.508" class="color686868 svgShape"></polygon><polygon fill="#4d4e4f" points="26.451 28.944 26.45 29.038 33.037 32.84 33.037 32.746" class="color4F4D4D svgShape"></polygon><polygon fill="#686868" points="33.037 32.746 33.038 32.286 26.452 28.483 26.451 28.944" class="color686868 svgShape"></polygon><polygon fill="#4d4e4f" points="26.452 28.389 26.452 28.483 33.038 32.286 33.039 32.192" class="color4F4D4D svgShape"></polygon><polygon fill="#686868" points="33.039 32.192 33.04 31.711 26.454 27.909 26.452 28.389" class="color686868 svgShape"></polygon><polygon fill="#4d4e4f" points="26.454 27.814 26.454 27.908 33.04 31.711 33.04 31.617" class="color4F4D4D svgShape"></polygon><polygon fill="#686868" points="33.04 31.617 33.042 31.157 26.455 27.354 26.454 27.814" class="color686868 svgShape"></polygon><polygon fill="#4d4e4f" points="26.456 27.261 26.455 27.354 33.042 31.157 33.042 31.064" class="color4F4D4D svgShape"></polygon><polygon fill="#686868" points="33.042 31.064 33.043 30.582 26.457 26.78 26.456 27.261" class="color686868 svgShape"></polygon><polygon fill="#4d4e4f" points="26.457 26.686 26.457 26.78 33.043 30.582 33.044 30.488" class="color4F4D4D svgShape"></polygon><polygon fill="#686868" points="33.044 30.488 33.045 30.028 26.458 26.226 26.457 26.686" class="color686868 svgShape"></polygon><polygon fill="#4d4e4f" points="26.459 26.132 26.458 26.226 33.045 30.028 33.045 29.934" class="color4F4D4D svgShape"></polygon><polygon fill="#686868" points="33.045 29.934 33.046 29.474 26.46 25.672 26.459 26.132" class="color686868 svgShape"></polygon><polygon fill="#4d4e4f" points="26.46 25.567 26.46 25.672 33.046 29.474 33.047 29.37" class="color4F4D4D svgShape"></polygon><polygon fill="#686868" points="33.047 29.37 33.048 28.899 26.462 25.097 26.46 25.567" class="color686868 svgShape"></polygon><polygon fill="#4d4e4f" points="26.462 25.002 26.462 25.097 33.048 28.899 33.048 28.805" class="color4F4D4D svgShape"></polygon><polygon fill="#686868" points="33.048 28.805 33.05 28.345 26.463 24.543 26.462 25.002" class="color686868 svgShape"></polygon><polygon fill="#4d4e4f" points="26.463 24.438 26.463 24.543 33.05 28.345 33.05 28.241" class="color4F4D4D svgShape"></polygon><polygon fill="#686868" points="33.05 28.241 33.051 27.771 26.465 23.968 26.463 24.438" class="color686868 svgShape"></polygon><polygon fill="#e8e8e8" points="26.45 31.16 26.134 31.331 33.037 35.3 33.039 34.949" class="colorE8E8E8 svgShape"></polygon><polygon fill="#d6d6d6" points="26.475 23.968 26.161 23.77 26.134 31.331 26.45 31.16" class="colorD6D6D6 svgShape"></polygon></g></svg></g></svg>