<?xml version="1.0" standalone="no"?>
<!DOCTYPE svg PUBLIC "-//W3C//DTD SVG 20010904//EN"
 "http://www.w3.org/TR/2001/REC-SVG-20010904/DTD/svg10.dtd">
<svg version="1.0" xmlns="http://www.w3.org/2000/svg"
 width="52.000000pt" height="52.000000pt" viewBox="0 0 52.000000 52.000000"
 preserveAspectRatio="xMidYMid meet">

<g transform="translate(0.000000,52.000000) scale(0.100000,-0.100000)"
fill="#000000" stroke="none">
<path d="M213 402 c16 -17 12 -22 -54 -88 -64 -64 -68 -69 -47 -75 19 -5 35 6
85 55 l63 60 58 -57 c32 -31 62 -57 67 -57 5 0 -31 41 -80 90 -49 50 -94 90
-99 90 -5 0 -2 -8 7 -18z"/>
<path d="M150 207 c0 -10 5 -15 10 -12 6 4 10 -13 10 -44 0 -44 3 -51 20 -51
17 0 20 7 20 44 0 24 3 51 6 59 4 11 -4 16 -30 19 -30 3 -36 1 -36 -15z"/>
<path d="M260 160 c0 -38 2 -70 4 -70 18 0 36 15 36 31 0 25 17 24 25 -1 12
-39 23 -19 22 40 -1 33 -5 60 -8 60 -4 0 -14 -10 -22 -22 l-16 -23 0 21 c-1
18 -18 34 -37 34 -2 0 -4 -31 -4 -70z"/>
</g>
</svg>
