<svg id="Layer_1" data-name="Layer 1" xmlns="http://www.w3.org/2000/svg" xmlns:xlink="http://www.w3.org/1999/xlink" viewBox="0 0 1423.68 600"><defs><linearGradient id="linear-gradient" x1="122.06" y1="378.08" x2="398.87" y2="101.28" gradientUnits="userSpaceOnUse"><stop offset="0" stop-color="#01f"/><stop offset="1" stop-color="#00beff"/></linearGradient><linearGradient id="linear-gradient-2" x1="146.81" y1="402.83" x2="423.61" y2="126.02" xlink:href="#linear-gradient"/><linearGradient id="linear-gradient-4" x1="171.55" y1="427.57" x2="448.36" y2="150.76" xlink:href="#linear-gradient"/><linearGradient id="linear-gradient-5" x1="62.18" y1="318.21" x2="338.99" y2="41.4" xlink:href="#linear-gradient"/><linearGradient id="linear-gradient-6" x1="144.62" y1="400.64" x2="421.43" y2="123.83" xlink:href="#linear-gradient"/><linearGradient id="linear-gradient-7" x1="159.18" y1="415.2" x2="435.99" y2="138.39" xlink:href="#linear-gradient"/><linearGradient id="linear-gradient-8" x1="95.71" y1="467.65" x2="251.72" y2="467.65" xlink:href="#linear-gradient"/><linearGradient id="linear-gradient-9" x1="289.67" y1="467.65" x2="489.11" y2="467.65" xlink:href="#linear-gradient"/><linearGradient id="linear-gradient-10" x1="627.3" y1="162.31" x2="828.23" y2="162.31" xlink:href="#linear-gradient"/><linearGradient id="linear-gradient-11" x1="804.09" y1="152.33" x2="1022.75" y2="152.33" xlink:href="#linear-gradient"/><linearGradient id="linear-gradient-12" x1="1051.58" y1="194.35" x2="1244.35" y2="194.35" xlink:href="#linear-gradient"/><linearGradient id="linear-gradient-13" x1="603.5" y1="449.52" x2="873.74" y2="449.52" xlink:href="#linear-gradient"/><linearGradient id="linear-gradient-14" x1="844.73" y1="481.74" x2="1057.14" y2="481.74" xlink:href="#linear-gradient"/><linearGradient id="linear-gradient-15" x1="1069.81" y1="481.39" x2="1244.88" y2="481.39" xlink:href="#linear-gradient"/><linearGradient id="linear-gradient-16" x1="1258.07" y1="452.65" x2="1412.82" y2="452.65" xlink:href="#linear-gradient"/></defs><title>logo-text</title><rect x="247.43" y="219.73" width="32.99" height="32.99" style="fill:url(#linear-gradient)"/><rect x="296.92" y="219.73" width="32.99" height="32.99" style="fill:url(#linear-gradient-2)"/><rect x="247.43" y="269.21" width="32.99" height="32.99" style="fill:url(#linear-gradient-2)"/><rect x="296.92" y="269.21" width="32.99" height="32.99" style="fill:url(#linear-gradient-4)"/><path d="M267.87,57.79,0,326.46l90.51,18.15L315.05,119.4Q291.46,88.61,267.87,57.79Z" style="fill:url(#linear-gradient-5)"/><polygon points="164.95 21.78 486.83 344.61 577.34 326.45 273.57 21.78 164.95 21.78" style="fill:url(#linear-gradient-6)"/><rect x="395.89" y="54.77" width="65.98" height="181.45" style="fill:url(#linear-gradient-7)"/><path d="M205.87,410.05V578.22H141.55V410.05H95.71v-53h156v53Z" style="fill:url(#linear-gradient-8)"/><path d="M489.11,578.22H414.83L376.6,494.65l-22.93,32.54v51h-64V357.08h64v91.44l61-91.44h61L419.81,438Z" style="fill:url(#linear-gradient-9)"/><path d="M637.2,38.92h191L818,86.5h-63L712.57,285.71H646.05L688.43,86.5H627.3Z" style="fill:url(#linear-gradient-10)"/><path d="M860.54,19h63.74L901.87,125.23q13.89-13.55,29-20.23A78.44,78.44,0,0,1,963,98.31q28.49,0,44.12,16.76t15.63,47.16a173,173,0,0,1-1.65,21.88q-1.65,12.67-5.13,28.65l-15.28,72.95H936.78L956.23,194c.7-3.48,1.24-6.72,1.65-9.73a63.09,63.09,0,0,0,.61-8.51q0-12.84-6.17-19.88t-17.1-7q-18.93,0-31.7,14.94t-19,44.81L868,285.71H804.09Z" style="fill:url(#linear-gradient-11)"/><path d="M1240,210.68H1108.89q1.74,20.15,13.2,29.78t33.69,9.64a141.18,141.18,0,0,0,31-3.56A166.14,166.14,0,0,0,1218,236.21l-7.12,45.16a218.9,218.9,0,0,1-33.35,7.81,225.4,225.4,0,0,1-34.21,2.61q-42.37,0-67-23.1T1051.58,206a114.82,114.82,0,0,1,8.85-43.85,109.88,109.88,0,0,1,23.8-36.56,94.18,94.18,0,0,1,35.17-21.45q20.58-7.2,46.28-7.21,37.86,0,58.27,20.5t20.4,58.35a139.84,139.84,0,0,1-1,16.59A161.6,161.6,0,0,1,1240,210.68Zm-48.8-35.26c.35-2.31.58-4.08.7-5.29s.17-2.29.17-3.21q0-15.28-8.68-24.15t-23.28-8.85q-14.94,0-26.4,11t-16.67,30.48Z" style="fill:url(#linear-gradient-12)"/><path d="M656.13,326.13H721.6L700.24,427.38l90.31-101.25h83.19L758.59,445.61l72.08,127.31H754.25l-59.74-118.8-25.19,118.8H603.5Z" style="fill:url(#linear-gradient-13)"/><path d="M962.14,385.17q44.28,0,69.64,22.93t25.36,63q0,48.11-32.48,77.63t-86,29.53q-43.77,0-68.86-22.4t-25.1-61.31q0-50,31.7-79.72T962.14,385.17Zm30.56,83.19q0-18.92-9.29-30.13T958.49,427q-20.15,0-34.56,19.45t-14.42,47.41q0,18.24,9.82,29.79t25.27,11.55q20,0,34-19.28T992.7,468.36Z" style="fill:url(#linear-gradient-14)"/><path d="M1244.88,395.77,1231,436.06a251.75,251.75,0,0,0-28.22-8.16,98.66,98.66,0,0,0-20.06-2.26q-13.38,0-20.93,4.52t-7.55,12.15q0,9.9,22.92,18.24c6.26,2.32,11.17,4.23,14.77,5.73q19.44,8.16,28.39,18.93t9,26.22q0,30.06-23.54,48.29t-63,18.23a233.59,233.59,0,0,1-37.6-3,214.87,214.87,0,0,1-35.35-8.86L1083,522a129.33,129.33,0,0,0,25.53,9.38,107.18,107.18,0,0,0,25.71,3.12q15.45,0,23.7-4.25t8.25-12.07q0-11.46-21.36-19.8c-2.32-.81-4-1.45-5.21-1.91q-26.75-10.94-36.3-22.23t-9.55-29.35q0-26.58,23.79-43.33t62.87-16.76a185.55,185.55,0,0,1,30.74,2.69A254.06,254.06,0,0,1,1244.88,395.77Z" style="fill:url(#linear-gradient-15)"/><path d="M1380.69,328.91l-13,61.13h45.16l-9.38,43.76h-45.16l-13.54,63.74q-1.21,5.38-1.83,9.55a48.67,48.67,0,0,0-.6,6.43q0,10.08,4.69,14.5t15.28,4.43a54.44,54.44,0,0,0,9.38-1q5.37-.94,11.63-2.69l-9.38,43.77q-11.62,1.9-20.23,2.86a136.41,136.41,0,0,1-14.85,1q-28.65,0-44.2-14.5T1279.09,521q0-4.51.43-9t1.31-9.29l14.58-68.95h-37.34l9.21-43.76h37.34l9.2-43.42Z" style="fill:url(#linear-gradient-16)"/></svg>